# Blender 4.0.2
# www.blender.org
mtllib Tree2.mtl
o Cylinder
v -0.000000 -0.036995 -0.215238
v -0.000000 4.052120 -0.095098
v 0.041991 -0.036995 -0.211102
v 0.018553 4.052120 -0.093271
v 0.082368 -0.036995 -0.198854
v 0.036392 4.052120 -0.087859
v 0.119580 -0.036995 -0.178964
v 0.052834 4.052120 -0.079071
v 0.152196 -0.036995 -0.152196
v 0.067245 4.052120 -0.067245
v 0.178964 -0.036995 -0.119580
v 0.079071 4.052120 -0.052834
v 0.198854 -0.036995 -0.082368
v 0.087859 4.052120 -0.036392
v 0.211102 -0.036995 -0.041991
v 0.093271 4.052120 -0.018553
v 0.215238 -0.036995 0.000000
v 0.095098 4.052120 0.000000
v 0.211102 -0.036995 0.041991
v 0.093271 4.052120 0.018553
v 0.198854 -0.036995 0.082368
v 0.087859 4.052120 0.036392
v 0.178964 -0.036995 0.119580
v 0.079071 4.052120 0.052834
v 0.152196 -0.036995 0.152196
v 0.067245 4.052120 0.067245
v 0.119580 -0.036995 0.178964
v 0.052834 4.052120 0.079071
v 0.082368 -0.036995 0.198854
v 0.036392 4.052120 0.087859
v 0.041991 -0.036995 0.211102
v 0.018553 4.052120 0.093271
v -0.000000 -0.036995 0.215238
v -0.000000 4.052120 0.095098
v -0.041991 -0.036995 0.211102
v -0.018553 4.052120 0.093271
v -0.082368 -0.036995 0.198854
v -0.036392 4.052120 0.087859
v -0.119580 -0.036995 0.178964
v -0.052834 4.052120 0.079071
v -0.152196 -0.036995 0.152196
v -0.067245 4.052120 0.067245
v -0.178964 -0.036995 0.119580
v -0.079071 4.052120 0.052834
v -0.198854 -0.036995 0.082368
v -0.087859 4.052120 0.036392
v -0.211102 -0.036995 0.041991
v -0.093271 4.052120 0.018553
v -0.215238 -0.036995 0.000000
v -0.095098 4.052120 0.000000
v -0.211102 -0.036995 -0.041991
v -0.093271 4.052120 -0.018553
v -0.198854 -0.036995 -0.082368
v -0.087859 4.052120 -0.036392
v -0.178964 -0.036995 -0.119580
v -0.079071 4.052120 -0.052834
v -0.152196 -0.036995 -0.152196
v -0.067245 4.052120 -0.067245
v -0.119580 -0.036995 -0.178964
v -0.052834 4.052120 -0.079071
v -0.082368 -0.036995 -0.198854
v -0.036392 4.052120 -0.087859
v -0.041991 -0.036995 -0.211102
v -0.018553 4.052120 -0.093271
v -0.024411 4.048315 -0.643575
v -0.287655 4.048315 -0.591212
v -0.510823 4.048315 -0.442096
v -0.659940 4.048315 -0.218928
v -0.712302 4.048315 0.044317
v -0.659940 4.048315 0.307561
v -0.510823 4.048315 0.530729
v -0.287655 4.048315 0.679846
v -0.024411 4.048315 0.732208
v 0.238834 4.048315 0.679846
v 0.462002 4.048315 0.530729
v 0.611118 4.048315 0.307561
v 0.663481 4.048315 0.044317
v 0.611118 4.048315 -0.218928
v 0.462002 4.048315 -0.442096
v 0.238834 4.048315 -0.591212
v -0.024411 5.199116 0.044317
v -0.024411 4.048316 -0.386074
v -0.189114 4.048316 -0.353312
v -0.328743 4.048316 -0.260015
v -0.422040 4.048316 -0.120387
v -0.454801 4.048316 0.044317
v -0.422040 4.048316 0.209020
v -0.328743 4.048316 0.348649
v -0.189114 4.048316 0.441945
v -0.024411 4.048316 0.474707
v 0.140293 4.048316 0.441945
v 0.279921 4.048316 0.348649
v 0.373218 4.048316 0.209020
v 0.405980 4.048316 0.044317
v 0.373218 4.048316 -0.120387
v 0.279921 4.048316 -0.260015
v 0.140293 4.048316 -0.353312
v -0.024411 3.206066 -0.936030
v -0.399573 3.206066 -0.861406
v -0.717621 3.206066 -0.648893
v -0.930133 3.206066 -0.330846
v -1.004758 3.206066 0.044317
v -0.930133 3.206066 0.419479
v -0.717621 3.206066 0.737527
v -0.399573 3.206066 0.950039
v -0.024411 3.206066 1.024664
v 0.350752 3.206066 0.950039
v 0.668799 3.206066 0.737527
v 0.881312 3.206066 0.419479
v 0.955936 3.206066 0.044317
v 0.881312 3.206066 -0.330846
v 0.668799 3.206066 -0.648893
v 0.350752 3.206066 -0.861406
v -0.024411 3.206066 -0.644756
v -0.288107 3.206066 -0.592303
v -0.511658 3.206066 -0.442931
v -0.661031 3.206066 -0.219380
v -0.713483 3.206066 0.044317
v -0.661031 3.206066 0.308013
v -0.511658 3.206066 0.531564
v -0.288107 3.206066 0.680937
v -0.024411 3.206066 0.733389
v 0.239286 3.206066 0.680937
v 0.462837 3.206066 0.531564
v 0.612209 3.206066 0.308013
v 0.664662 3.206066 0.044317
v 0.612209 3.206066 -0.219380
v 0.462837 3.206066 -0.442931
v 0.239286 3.206066 -0.592303
v -0.024411 1.977476 -1.361544
v -0.562410 1.977476 -1.254529
v -1.018504 1.977476 -0.949777
v -1.323256 1.977476 -0.493683
v -1.430271 1.977476 0.044317
v -1.323256 1.977476 0.582316
v -1.018504 1.977476 1.038410
v -0.562410 1.977476 1.343162
v -0.024411 1.977476 1.450177
v 0.513589 1.977476 1.343162
v 0.969683 1.977476 1.038410
v 1.274435 1.977476 0.582316
v 1.381450 1.977476 0.044317
v 1.274435 1.977476 -0.493683
v 0.969683 1.977476 -0.949777
v 0.513589 1.977476 -1.254529
vn -0.0000 0.0294 -0.9996
vn 0.1950 0.0294 -0.9804
vn 0.3825 0.0294 -0.9235
vn 0.5553 0.0294 -0.8311
vn 0.7068 0.0294 -0.7068
vn 0.8311 0.0294 -0.5553
vn 0.9235 0.0294 -0.3825
vn 0.9804 0.0294 -0.1950
vn 0.9996 0.0294 -0.0000
vn 0.9804 0.0294 0.1950
vn 0.9235 0.0294 0.3825
vn 0.8311 0.0294 0.5553
vn 0.7068 0.0294 0.7068
vn 0.5553 0.0294 0.8311
vn 0.3825 0.0294 0.9235
vn 0.1950 0.0294 0.9804
vn -0.0000 0.0294 0.9996
vn -0.1950 0.0294 0.9804
vn -0.3825 0.0294 0.9235
vn -0.5553 0.0294 0.8311
vn -0.7068 0.0294 0.7068
vn -0.8311 0.0294 0.5553
vn -0.9235 0.0294 0.3825
vn -0.9804 0.0294 0.1950
vn -0.9996 0.0294 -0.0000
vn -0.9804 0.0294 -0.1950
vn -0.9235 0.0294 -0.3825
vn -0.8311 0.0294 -0.5553
vn -0.7068 0.0294 -0.7068
vn -0.5553 0.0294 -0.8311
vn -0.3825 0.0294 -0.9235
vn -0.0000 1.0000 -0.0000
vn -0.1950 0.0294 -0.9804
vn -0.0000 -1.0000 -0.0000
vn -0.6069 0.5131 0.6069
vn -0.7930 0.5131 0.3285
vn 0.6069 0.5131 -0.6069
vn 0.7930 0.5131 -0.3285
vn -0.3285 0.5131 0.7930
vn 0.3285 0.5131 -0.7930
vn -0.0000 0.5131 0.8583
vn -0.3285 0.5131 -0.7930
vn -0.0000 0.5131 -0.8583
vn 0.3285 0.5131 0.7930
vn -0.6069 0.5131 -0.6069
vn 0.6069 0.5131 0.6069
vn -0.7930 0.5131 -0.3285
vn 0.7930 0.5131 0.3285
vn -0.8583 0.5131 -0.0000
vn 0.8583 0.5131 -0.0000
vn -0.5921 0.5467 0.5921
vn -0.3204 0.5467 0.7736
vn 0.5921 0.5467 -0.5921
vn 0.3204 0.5467 -0.7736
vn -0.0000 0.5467 0.8373
vn -0.0000 0.5467 -0.8373
vn -0.3204 0.5467 -0.7736
vn 0.3204 0.5467 0.7736
vn -0.5921 0.5467 -0.5921
vn 0.5921 0.5467 0.5921
vn -0.7736 0.5467 -0.3204
vn 0.7736 0.5467 0.3204
vn -0.8373 0.5467 -0.0000
vn 0.8373 0.5467 -0.0000
vn -0.7736 0.5467 0.3204
vn 0.7736 0.5467 -0.3204
vn 0.7980 0.5039 -0.3305
vn 0.6108 0.5039 -0.6108
vn -0.6108 0.5039 0.6108
vn -0.3305 0.5039 0.7980
vn 0.3305 0.5039 -0.7980
vn -0.0000 0.5039 0.8637
vn -0.0000 0.5039 -0.8637
vn -0.3305 0.5039 -0.7980
vn 0.3305 0.5039 0.7980
vn -0.6108 0.5039 -0.6108
vn 0.6108 0.5039 0.6108
vn -0.7980 0.5039 -0.3305
vn 0.7980 0.5039 0.3305
vn -0.8637 0.5039 -0.0000
vn 0.8637 0.5039 -0.0000
vn -0.7980 0.5039 0.3305
vt 0.732467 0.794068
vt 0.765566 0.794780
vt 0.765572 0.794932
vt 0.732459 0.794410
vt 0.765568 0.795080
vt 0.732452 0.794745
vt 0.765565 0.795219
vt 0.732454 0.795060
vt 0.765563 0.795344
vt 0.732457 0.795344
vt 0.732483 0.797795
vt 0.765581 0.798447
vt 0.765581 0.798553
vt 0.732474 0.798035
vt 0.765581 0.798678
vt 0.732465 0.798319
vt 0.765581 0.798817
vt 0.732465 0.798634
vt 0.765572 0.798965
vt 0.732465 0.798969
vt 0.765581 0.799117
vt 0.732465 0.799311
vt 0.765581 0.799265
vt 0.732465 0.799646
vt 0.765581 0.799404
vt 0.732474 0.799961
vt 0.765581 0.799529
vt 0.732483 0.800246
vt 0.732473 0.795341
vt 0.765578 0.795341
vt 0.765580 0.795449
vt 0.732469 0.795584
vt 0.765582 0.795575
vt 0.732466 0.795866
vt 0.765585 0.795714
vt 0.732472 0.796181
vt 0.765579 0.795861
vt 0.732479 0.796516
vt 0.765591 0.796011
vt 0.732486 0.796858
vt 0.765594 0.796159
vt 0.732492 0.797193
vt 0.765597 0.796300
vt 0.732507 0.797510
vt 0.765599 0.796425
vt 0.732522 0.797794
vt 0.765581 0.800898
vt 0.765581 0.801004
vt 0.732474 0.800486
vt 0.765581 0.801130
vt 0.732465 0.800770
vt 0.765581 0.801268
vt 0.732465 0.801085
vt 0.765572 0.801416
vt 0.732465 0.801421
vt 0.765581 0.801568
vt 0.732465 0.801762
vt 0.765581 0.801716
vt 0.732465 0.802097
vt 0.765581 0.801855
vt 0.732474 0.802412
vt 0.765581 0.801980
vt 0.732483 0.802697
vt 0.732510 0.792892
vt 0.765586 0.794260
vt 0.765584 0.794368
vt 0.732496 0.793134
vt 0.765581 0.794494
vt 0.732481 0.793418
vt 0.736772 0.804220
vt 0.736622 0.804217
vt 0.736475 0.804187
vt 0.736335 0.804132
vt 0.736209 0.804043
vt 0.736104 0.803941
vt 0.736021 0.803807
vt 0.735964 0.803669
vt 0.735936 0.803520
vt 0.735936 0.803376
vt 0.735967 0.803220
vt 0.736023 0.803088
vt 0.736108 0.802961
vt 0.736214 0.802857
vt 0.736341 0.802774
vt 0.736480 0.802712
vt 0.736628 0.802689
vt 0.736780 0.802684
vt 0.736927 0.802713
vt 0.737065 0.802777
vt 0.737193 0.802857
vt 0.737298 0.802969
vt 0.737381 0.803093
vt 0.737438 0.803231
vt 0.737466 0.803381
vt 0.737468 0.803525
vt 0.737437 0.803681
vt 0.737379 0.803813
vt 0.737294 0.803940
vt 0.737188 0.804044
vt 0.737061 0.804135
vt 0.736922 0.804188
vt 0.765578 0.794633
vt 0.732474 0.793733
vt 0.732536 0.804941
vt 0.732469 0.804606
vt 0.732469 0.804262
vt 0.732536 0.803927
vt 0.732666 0.803609
vt 0.732855 0.803327
vt 0.733098 0.803089
vt 0.733382 0.802895
vt 0.733697 0.802763
vt 0.734032 0.802701
vt 0.734374 0.802701
vt 0.734709 0.802763
vt 0.735024 0.802895
vt 0.735308 0.803089
vt 0.735549 0.803327
vt 0.735738 0.803609
vt 0.735871 0.803927
vt 0.735937 0.804262
vt 0.735937 0.804606
vt 0.735871 0.804941
vt 0.735738 0.805258
vt 0.735549 0.805540
vt 0.735308 0.805778
vt 0.735024 0.805972
vt 0.734709 0.806104
vt 0.734374 0.806166
vt 0.734032 0.806166
vt 0.733697 0.806104
vt 0.733382 0.805972
vt 0.733098 0.805778
vt 0.732855 0.805540
vt 0.732666 0.805258
vt 0.088549 0.844749
vt 0.088339 0.844238
vt 0.088443 0.844781
vt 0.087819 0.844749
vt 0.087609 0.844238
vt 0.087713 0.844781
vt 0.088641 0.844698
vt 0.087911 0.844698
vt 0.088704 0.844635
vt 0.088078 0.844781
vt 0.087974 0.844238
vt 0.087974 0.844788
vt 0.087974 0.844635
vt 0.087348 0.844781
vt 0.087244 0.844238
vt 0.087244 0.844788
vt 0.088184 0.844749
vt 0.087454 0.844749
vt 0.088276 0.844698
vt 0.087546 0.844698
vt 0.088339 0.844635
vt 0.087609 0.844635
vt 0.088339 0.844788
vt 0.087609 0.844788
vt 0.089260 0.844565
vt 0.089156 0.844545
vt 0.089130 0.844609
vt 0.089218 0.844668
vt 0.088704 0.844455
vt 0.088808 0.844475
vt 0.088835 0.844411
vt 0.088746 0.844352
vt 0.089081 0.844658
vt 0.089140 0.844746
vt 0.088883 0.844362
vt 0.088824 0.844274
vt 0.089017 0.844684
vt 0.089037 0.844788
vt 0.088947 0.844336
vt 0.088927 0.844232
vt 0.088947 0.844684
vt 0.088927 0.844788
vt 0.089037 0.844232
vt 0.089017 0.844336
vt 0.089081 0.844362
vt 0.089140 0.844274
vt 0.088883 0.844658
vt 0.088824 0.844746
vt 0.089130 0.844411
vt 0.089218 0.844352
vt 0.088835 0.844609
vt 0.088746 0.844668
vt 0.089156 0.844475
vt 0.089260 0.844455
vt 0.088808 0.844545
vt 0.088704 0.844565
vt 0.087752 0.846063
vt 0.087708 0.845650
vt 0.087562 0.845683
vt 0.087688 0.846077
vt 0.087016 0.845913
vt 0.087016 0.845498
vt 0.086867 0.845515
vt 0.086951 0.845920
vt 0.087451 0.845742
vt 0.087639 0.846103
vt 0.086817 0.844662
vt 0.087211 0.844788
vt 0.087244 0.844642
vt 0.086831 0.844598
vt 0.086750 0.845562
vt 0.086900 0.845941
vt 0.087147 0.845498
vt 0.087314 0.845119
vt 0.087173 0.845072
vt 0.087085 0.845477
vt 0.087244 0.844485
vt 0.086831 0.844529
vt 0.087016 0.845055
vt 0.087016 0.845470
vt 0.087211 0.844339
vt 0.086817 0.844465
vt 0.086867 0.845072
vt 0.086951 0.845477
vt 0.087934 0.846103
vt 0.088123 0.845742
vt 0.088011 0.845683
vt 0.087885 0.846077
vt 0.086750 0.845119
vt 0.086900 0.845498
vt 0.087866 0.845650
vt 0.087821 0.846063
vt 0.087147 0.845941
vt 0.087314 0.845562
vt 0.087173 0.845515
vt 0.087085 0.845920
vt 0.086693 0.846674
vt 0.086760 0.846574
vt 0.086681 0.846496
vt 0.086581 0.846562
vt 0.087254 0.846113
vt 0.087154 0.846180
vt 0.087196 0.846282
vt 0.087314 0.846259
vt 0.086521 0.846417
vt 0.086639 0.846393
vt 0.086639 0.846282
vt 0.086521 0.846259
vt 0.087196 0.846393
vt 0.087314 0.846417
vt 0.086681 0.846180
vt 0.086581 0.846113
vt 0.087154 0.846496
vt 0.087254 0.846562
vt 0.086760 0.846101
vt 0.086693 0.846002
vt 0.087076 0.846574
vt 0.087142 0.846674
vt 0.086862 0.846059
vt 0.086839 0.845941
vt 0.086973 0.846617
vt 0.086997 0.846734
vt 0.086973 0.846059
vt 0.086997 0.845941
vt 0.086862 0.846617
vt 0.086839 0.846734
vt 0.087076 0.846101
vt 0.087142 0.846002
vt 0.087801 0.846701
vt 0.087920 0.846127
vt 0.087695 0.846103
vt 0.087691 0.846689
vt 0.088674 0.845165
vt 0.089260 0.845169
vt 0.089236 0.844956
vt 0.088663 0.845061
vt 0.087482 0.846127
vt 0.087587 0.846701
vt 0.089168 0.844788
vt 0.088629 0.844978
vt 0.087998 0.845375
vt 0.088537 0.845597
vt 0.088605 0.845394
vt 0.088031 0.845275
vt 0.087314 0.846195
vt 0.087504 0.846734
vt 0.087367 0.845375
vt 0.087906 0.845597
vt 0.087974 0.845394
vt 0.087400 0.845275
vt 0.088629 0.845169
vt 0.088043 0.845165
vt 0.087998 0.845169
vt 0.087412 0.845165
vt 0.088605 0.844956
vt 0.088031 0.845061
vt 0.087974 0.844956
vt 0.087400 0.845061
vt 0.088537 0.844788
vt 0.087998 0.844978
vt 0.087906 0.844788
vt 0.087367 0.844978
vt 0.088629 0.845375
vt 0.089168 0.845597
vt 0.089236 0.845394
vt 0.088663 0.845275
vt 0.087901 0.846734
vt 0.088123 0.846195
vt 0.088579 0.846734
vt 0.088805 0.846734
vt 0.089014 0.846648
vt 0.089174 0.846488
vt 0.089260 0.846279
vt 0.089260 0.846052
vt 0.089174 0.845843
vt 0.089014 0.845683
vt 0.088805 0.845597
vt 0.088579 0.845597
vt 0.088370 0.845684
vt 0.088210 0.845844
vt 0.088123 0.846053
vt 0.088123 0.846279
vt 0.088210 0.846488
vt 0.088370 0.846648
s 1
f 1/1/1 2/2/1 4/3/2 3/4/2
f 3/4/2 4/3/2 6/5/3 5/6/3
f 5/6/3 6/5/3 8/7/4 7/8/4
f 7/8/4 8/7/4 10/9/5 9/10/5
f 9/11/5 10/12/5 12/13/6 11/14/6
f 11/14/6 12/13/6 14/15/7 13/16/7
f 13/16/7 14/15/7 16/17/8 15/18/8
f 15/18/8 16/17/8 18/19/9 17/20/9
f 17/20/9 18/19/9 20/21/10 19/22/10
f 19/22/10 20/21/10 22/23/11 21/24/11
f 21/24/11 22/23/11 24/25/12 23/26/12
f 23/26/12 24/25/12 26/27/13 25/28/13
f 25/29/13 26/30/13 28/31/14 27/32/14
f 27/32/14 28/31/14 30/33/15 29/34/15
f 29/34/15 30/33/15 32/35/16 31/36/16
f 31/36/16 32/35/16 34/37/17 33/38/17
f 33/38/17 34/37/17 36/39/18 35/40/18
f 35/40/18 36/39/18 38/41/19 37/42/19
f 37/42/19 38/41/19 40/43/20 39/44/20
f 39/44/20 40/43/20 42/45/21 41/46/21
f 41/28/21 42/47/21 44/48/22 43/49/22
f 43/49/22 44/48/22 46/50/23 45/51/23
f 45/51/23 46/50/23 48/52/24 47/53/24
f 47/53/24 48/52/24 50/54/25 49/55/25
f 49/55/25 50/54/25 52/56/26 51/57/26
f 51/57/26 52/56/26 54/58/27 53/59/27
f 53/59/27 54/58/27 56/60/28 55/61/28
f 55/61/28 56/60/28 58/62/29 57/63/29
f 57/64/29 58/65/29 60/66/30 59/67/30
f 59/67/30 60/66/30 62/68/31 61/69/31
f 4/70/32 2/71/32 64/72/32 62/73/32 60/74/32 58/75/32 56/76/32 54/77/32 52/78/32 50/79/32 48/80/32 46/81/32 44/82/32 42/83/32 40/84/32 38/85/32 36/86/32 34/87/32 32/88/32 30/89/32 28/90/32 26/91/32 24/92/32 22/93/32 20/94/32 18/95/32 16/96/32 14/97/32 12/98/32 10/99/32 8/100/32 6/101/32
f 61/69/31 62/68/31 64/102/33 63/103/33
f 63/103/33 64/102/33 2/2/1 1/1/1
f 1/104/34 3/105/34 5/106/34 7/107/34 9/108/34 11/109/34 13/110/34 15/111/34 17/112/34 19/113/34 21/114/34 23/115/34 25/116/34 27/117/34 29/118/34 31/119/34 33/120/34 35/121/34 37/122/34 39/123/34 41/124/34 43/125/34 45/126/34 47/127/34 49/128/34 51/129/34 53/130/34 55/131/34 57/132/34 59/133/34 61/134/34 63/135/34
f 71/136/35 81/137/32 70/138/36
f 79/139/37 81/140/32 78/141/38
f 72/142/39 81/137/32 71/136/35
f 80/143/40 81/140/32 79/139/37
f 73/144/41 81/137/32 72/142/39
f 66/145/42 81/146/32 65/147/43
f 65/148/43 81/140/32 80/143/40
f 74/149/44 81/150/32 73/151/41
f 67/152/45 81/146/32 66/145/42
f 75/153/46 81/150/32 74/149/44
f 68/154/47 81/146/32 67/152/45
f 76/155/48 81/150/32 75/153/46
f 69/156/49 81/146/32 68/154/47
f 77/157/50 81/150/32 76/155/48
f 70/138/36 81/137/32 69/158/49
f 78/141/38 81/140/32 77/159/50
f 69/160/34 86/161/34 87/162/34 70/163/34
f 77/164/34 94/165/34 95/166/34 78/167/34
f 70/163/34 87/162/34 88/168/34 71/169/34
f 78/167/34 95/166/34 96/170/34 79/171/34
f 71/169/34 88/168/34 89/172/34 72/173/34
f 79/171/34 96/170/34 97/174/34 80/175/34
f 72/173/34 89/172/34 90/176/34 73/177/34
f 65/178/34 82/179/34 83/180/34 66/181/34
f 80/175/34 97/174/34 82/179/34 65/178/34
f 73/177/34 90/176/34 91/182/34 74/183/34
f 66/181/34 83/180/34 84/184/34 67/185/34
f 74/183/34 91/182/34 92/186/34 75/187/34
f 67/185/34 84/184/34 85/188/34 68/189/34
f 75/187/34 92/186/34 93/190/34 76/191/34
f 68/189/34 85/188/34 86/161/34 69/160/34
f 76/191/34 93/190/34 94/165/34 77/164/34
f 88/192/51 104/193/51 105/194/52 89/195/52
f 96/196/53 112/197/53 113/198/54 97/199/54
f 89/195/52 105/194/52 106/200/55 90/201/55
f 82/202/56 98/203/56 99/204/57 83/205/57
f 97/199/54 113/198/54 98/206/56 82/207/56
f 90/208/55 106/209/55 107/210/58 91/211/58
f 83/205/57 99/204/57 100/212/59 84/213/59
f 91/211/58 107/210/58 108/214/60 92/215/60
f 84/213/59 100/212/59 101/216/61 85/217/61
f 92/215/60 108/214/60 109/218/62 93/219/62
f 85/220/61 101/221/61 102/222/63 86/223/63
f 93/219/62 109/218/62 110/224/64 94/225/64
f 86/223/63 102/222/63 103/226/65 87/227/65
f 94/228/64 110/229/64 111/230/66 95/231/66
f 87/227/65 103/226/65 104/193/51 88/192/51
f 95/231/66 111/230/66 112/197/53 96/196/53
f 113/232/34 129/233/34 114/234/34 98/235/34
f 106/236/34 122/237/34 123/238/34 107/239/34
f 99/240/34 115/241/34 116/242/34 100/243/34
f 107/239/34 123/238/34 124/244/34 108/245/34
f 100/243/34 116/242/34 117/246/34 101/247/34
f 108/245/34 124/244/34 125/248/34 109/249/34
f 101/247/34 117/246/34 118/250/34 102/251/34
f 109/249/34 125/248/34 126/252/34 110/253/34
f 102/251/34 118/250/34 119/254/34 103/255/34
f 110/253/34 126/252/34 127/256/34 111/257/34
f 103/255/34 119/254/34 120/258/34 104/259/34
f 111/257/34 127/256/34 128/260/34 112/261/34
f 104/259/34 120/258/34 121/262/34 105/263/34
f 112/261/34 128/260/34 129/233/34 113/232/34
f 105/263/34 121/262/34 122/237/34 106/236/34
f 98/235/34 114/234/34 115/241/34 99/240/34
f 127/264/67 143/265/67 144/266/68 128/267/68
f 120/268/69 136/269/69 137/270/70 121/271/70
f 128/267/68 144/266/68 145/272/71 129/273/71
f 121/271/70 137/270/70 138/274/72 122/275/72
f 114/276/73 130/277/73 131/278/74 115/279/74
f 129/273/71 145/272/71 130/280/73 114/281/73
f 122/282/72 138/283/72 139/284/75 123/285/75
f 115/279/74 131/278/74 132/286/76 116/287/76
f 123/285/75 139/284/75 140/288/77 124/289/77
f 116/287/76 132/286/76 133/290/78 117/291/78
f 124/289/77 140/288/77 141/292/79 125/293/79
f 117/291/78 133/290/78 134/294/80 118/295/80
f 125/293/79 141/292/79 142/296/81 126/297/81
f 118/298/80 134/299/80 135/300/82 119/301/82
f 126/302/81 142/303/81 143/265/67 127/264/67
f 119/301/82 135/300/82 136/269/69 120/268/69
f 131/304/34 130/305/34 145/306/34 144/307/34 143/308/34 142/309/34 141/310/34 140/311/34 139/312/34 138/313/34 137/314/34 136/315/34 135/316/34 134/317/34 133/318/34 132/319/34
