# Blender 4.0.2
# www.blender.org
mtllib treeBottom.mtl
o Cylinder.002
v 0.000000 0.986529 0.074104
v 0.000000 0.478819 0.100000
v -0.052399 0.986529 0.052399
v -0.070711 0.478819 0.070711
v -0.074104 0.986529 -0.000000
v -0.100000 0.478819 0.000000
v -0.052399 0.986529 -0.052399
v -0.070711 0.478819 -0.070711
v 0.000000 0.986529 -0.074104
v 0.000000 0.478819 -0.100000
v 0.052399 0.986529 -0.052399
v 0.070711 0.478819 -0.070711
v 0.074104 0.986529 -0.000000
v 0.100000 0.478819 0.000000
v 0.052399 0.986529 0.052399
v 0.070711 0.478819 0.070711
v 0.000000 1.607749 0.050285
v -0.035557 1.607749 0.035557
v -0.050285 1.607749 0.000000
v -0.035557 1.607749 -0.035557
v 0.000000 1.607749 -0.050285
v 0.035557 1.607749 -0.035557
v 0.050285 1.607749 0.000000
v 0.035557 1.607749 0.035557
v 0.000000 0.499265 0.098957
v -0.069973 0.499265 0.069973
v -0.098957 0.499265 -0.000000
v -0.069973 0.499265 -0.069973
v 0.000000 0.499265 -0.098957
v 0.069973 0.499265 -0.069973
v 0.098957 0.499265 -0.000000
v 0.069973 0.499265 0.069973
v -0.026422 0.794766 0.069399
v -0.036103 0.794766 0.442034
v -0.018683 0.813450 0.069399
v -0.030828 0.807503 0.442116
v 0.000000 0.821189 0.069399
v -0.018093 0.812779 0.442314
v 0.018683 0.813450 0.069399
v -0.005358 0.807503 0.442512
v 0.026422 0.794766 0.069399
v -0.000083 0.794766 0.442594
v 0.018683 0.776083 0.069399
v -0.005358 0.782030 0.442512
v 0.000000 0.768344 0.069399
v -0.018093 0.776754 0.442314
v -0.018683 0.776083 0.069399
v -0.030828 0.782030 0.442116
v -0.036103 0.799309 0.463114
v -0.030828 0.811000 0.458059
v -0.018093 0.815909 0.456116
v -0.005358 0.811160 0.458421
v -0.000083 0.799535 0.463626
v -0.005358 0.787844 0.468681
v -0.018093 0.782935 0.470624
v -0.030828 0.787684 0.468318
v -0.036103 0.811957 0.480578
v -0.030828 0.820622 0.471243
v -0.018093 0.824332 0.467487
v -0.005358 0.820914 0.471511
v -0.000083 0.812370 0.480956
v -0.005358 0.803705 0.490292
v -0.018093 0.799995 0.494048
v -0.030828 0.803413 0.490024
v -0.036103 0.830568 0.491470
v -0.030828 0.834739 0.479436
v -0.018093 0.836622 0.474504
v -0.005358 0.835114 0.479563
v -0.000083 0.831098 0.491650
v -0.005358 0.826926 0.503684
v -0.018093 0.825043 0.508616
v -0.030828 0.826551 0.503557
v -0.034281 0.927464 0.493922
v -0.029539 0.927445 0.482474
v -0.018093 0.927584 0.477730
v -0.006646 0.927801 0.482471
v -0.001905 0.927967 0.493918
v -0.006646 0.927987 0.505366
v -0.018093 0.927848 0.510109
v -0.029539 0.927631 0.505369
v -0.036413 1.006370 -0.031048
v -0.399548 1.006370 -0.115209
v -0.037963 1.025054 -0.023466
v -0.400686 1.019107 -0.110058
v -0.041708 1.032792 -0.005162
v -0.403432 1.024383 -0.097621
v -0.045452 1.025054 0.013142
v -0.406177 1.019107 -0.085184
v -0.047003 1.006370 0.020724
v -0.407315 1.006370 -0.080032
v -0.045452 0.987687 0.013142
v -0.406177 0.993634 -0.085184
v -0.041708 0.979948 -0.005162
v -0.403432 0.988358 -0.097621
v -0.037963 0.987687 -0.023466
v -0.400686 0.993634 -0.110058
v -0.420200 1.010913 -0.119434
v -0.416305 1.022604 -0.113253
v -0.416953 1.027513 -0.100386
v -0.421764 1.022764 -0.088372
v -0.427920 1.011139 -0.084247
v -0.431815 0.999448 -0.090428
v -0.431167 0.994539 -0.103294
v -0.426356 0.999288 -0.115309
v -0.437310 1.023561 -0.122933
v -0.429222 1.032226 -0.115895
v -0.428094 1.035936 -0.102665
v -0.434588 1.032518 -0.090995
v -0.444899 1.023974 -0.087720
v -0.452988 1.015308 -0.094759
v -0.454116 1.011598 -0.107988
v -0.447622 1.015017 -0.119658
v -0.447981 1.042172 -0.125116
v -0.437248 1.046343 -0.117536
v -0.434968 1.048226 -0.104071
v -0.442477 1.046718 -0.092608
v -0.455376 1.042701 -0.089863
v -0.466109 1.038530 -0.097442
v -0.468389 1.036647 -0.110908
v -0.460880 1.038155 -0.122370
v -0.450748 1.139068 -0.123822
v -0.440482 1.139049 -0.116883
v -0.438129 1.139188 -0.104718
v -0.445067 1.139405 -0.094453
v -0.457232 1.139571 -0.092102
v -0.467498 1.139591 -0.099042
v -0.469851 1.139452 -0.111207
v -0.462913 1.139235 -0.121471
v 0.044938 1.092970 0.015270
v 0.360163 1.092583 -0.201088
v 0.038393 1.119906 0.006267
v 0.353736 1.116002 -0.208074
v 0.022553 1.131124 -0.015519
v 0.339705 1.125879 -0.226873
v 0.006663 1.119988 -0.037368
v 0.326496 1.116101 -0.246427
v 0.000067 1.092970 -0.046435
v 0.322035 1.092568 -0.254914
v 0.006663 1.065953 -0.037368
v 0.328662 1.069483 -0.247462
v 0.022553 1.054817 -0.015519
v 0.342342 1.060083 -0.228811
v 0.038393 1.066034 0.006267
v 0.355343 1.069540 -0.209729
v 0.377453 1.096824 -0.213868
v 0.364275 1.118490 -0.215642
v 0.346972 1.127726 -0.232348
v 0.336330 1.118608 -0.253966
v 0.338712 1.097052 -0.267224
v 0.352107 1.076084 -0.264674
v 0.368606 1.067477 -0.248312
v 0.379037 1.075897 -0.227473
v 0.391706 1.109654 -0.224390
v 0.372158 1.125639 -0.221462
v 0.352136 1.132483 -0.236160
v 0.344156 1.125859 -0.259743
v 0.352856 1.110072 -0.277665
v 0.372414 1.094609 -0.279664
v 0.391459 1.088164 -0.265183
v 0.399434 1.094266 -0.242530
v 0.400741 1.128695 -0.231070
v 0.377139 1.135801 -0.225004
v 0.355186 1.138899 -0.238427
v 0.348930 1.136113 -0.263399
v 0.361731 1.129236 -0.284206
v 0.385172 1.122268 -0.289042
v 0.405845 1.119200 -0.275784
v 0.412289 1.121839 -0.252047
v 0.398957 1.235130 -0.236170
v 0.378261 1.235177 -0.231075
v 0.360173 1.235368 -0.241989
v 0.355054 1.235652 -0.262480
v 0.366031 1.235818 -0.280773
v 0.386768 1.235711 -0.285907
v 0.404897 1.235443 -0.274944
v 0.409971 1.235216 -0.254409
vn -0.0000 0.0509 0.9987
vn -0.7062 0.0509 0.7062
vn -0.9987 0.0509 -0.0000
vn -0.7062 0.0509 -0.7062
vn -0.0000 0.0509 -0.9987
vn 0.7062 0.0509 -0.7062
vn 0.9987 0.0509 -0.0000
vn 0.7062 0.0509 0.7062
vn -0.7064 0.0447 -0.7064
vn -0.7066 0.0383 -0.7066
vn -0.0000 0.0383 -0.9993
vn -0.0000 0.0447 -0.9990
vn 0.9990 0.0447 -0.0000
vn 0.9993 0.0383 -0.0000
vn 0.7066 0.0383 0.7066
vn 0.7064 0.0447 0.7064
vn -0.7064 0.0447 0.7064
vn -0.7066 0.0383 0.7066
vn -0.9993 0.0383 -0.0000
vn -0.9990 0.0447 -0.0000
vn 0.7066 0.0383 -0.7066
vn 0.7064 0.0447 -0.7064
vn -0.0000 0.0383 0.9993
vn -0.0000 0.0447 0.9990
vn -0.7684 -0.0000 -0.6400
vn -0.9996 -0.0259 -0.0076
vn -0.7217 0.6874 -0.0813
vn -0.5419 0.5511 -0.6346
vn -0.0057 0.9947 -0.1028
vn 0.0091 0.7833 -0.6215
vn 0.7182 0.6940 -0.0501
vn 0.5655 0.5565 -0.6087
vn 0.9988 -0.0269 0.0413
vn 0.7974 -0.0000 -0.6035
vn 0.6879 -0.7178 0.1073
vn 0.5655 -0.5565 -0.6087
vn -0.0062 -0.9933 0.1157
vn 0.0091 -0.7833 -0.6215
vn 0.7332 0.6173 -0.2852
vn 0.9987 -0.0458 0.0210
vn -0.6965 -0.7140 0.0707
vn -0.5419 -0.5511 -0.6346
vn 0.0002 0.9090 -0.4168
vn 0.0002 0.6642 -0.7476
vn 0.7332 0.4501 -0.5097
vn -0.0001 -0.9122 0.4097
vn -0.6829 -0.6672 0.2976
vn -0.7331 0.6200 -0.2796
vn 0.6828 -0.6653 0.3020
vn -0.9987 -0.0460 0.0205
vn -0.6829 -0.4908 0.5411
vn -0.0001 -0.6700 0.7424
vn -0.0010 -0.2702 0.9628
vn -0.6814 -0.1947 0.7055
vn -0.9987 -0.0338 0.0373
vn -0.7331 0.4549 -0.5056
vn 0.6828 -0.4874 0.5443
vn 0.9987 -0.0335 0.0377
vn 0.9982 -0.0043 0.0598
vn 0.7403 0.1867 -0.6459
vn 0.5341 0.6442 -0.5475
vn 0.7649 0.6442 0.0032
vn 0.6806 -0.1910 0.7073
vn 0.0010 0.2719 -0.9623
vn -0.9982 -0.0051 0.0604
vn -0.7403 0.1908 -0.6446
vn -0.5447 0.6362 -0.5464
vn -0.7751 0.6318 0.0030
vn -0.5487 0.6264 0.5537
vn -0.0086 0.6271 0.7789
vn 0.5350 0.6357 0.5565
vn -0.0054 0.6397 -0.7686
vn 0.7810 -0.0000 -0.6245
vn 0.2077 -0.0259 -0.9778
vn 0.2242 0.6874 -0.6908
vn 0.7303 0.5511 -0.4037
vn 0.1018 0.9947 0.0150
vn 0.6071 0.7833 0.1335
vn -0.0948 0.6940 0.7137
vn 0.4831 0.5565 0.6760
vn -0.2407 -0.0269 0.9702
vn 0.4315 -0.0000 0.9021
vn -0.2429 -0.7178 0.6524
vn 0.4831 -0.5565 0.6760
vn -0.1121 -0.9933 -0.0293
vn 0.6071 -0.7833 0.1335
vn 0.1325 0.6173 0.7755
vn -0.2207 -0.0458 0.9743
vn 0.0704 -0.7140 -0.6966
vn 0.7303 -0.5511 -0.4037
vn 0.4083 0.9090 0.0837
vn 0.7324 0.6642 0.1500
vn 0.3524 0.4501 0.8205
vn -0.4014 -0.9122 -0.0822
vn -0.1547 -0.6672 -0.7287
vn 0.4208 0.6200 -0.6622
vn -0.4327 -0.6653 0.6084
vn 0.1800 -0.0460 -0.9826
vn -0.3933 -0.4908 -0.7775
vn -0.7273 -0.6700 -0.1489
vn -0.9431 -0.2702 -0.1940
vn -0.5546 -0.1947 -0.8090
vn 0.1636 -0.0338 -0.9859
vn 0.6423 0.4549 -0.6169
vn -0.6701 -0.4874 0.5598
vn -0.2371 -0.0335 0.9709
vn -0.2587 -0.0043 0.9660
vn 0.4844 0.1867 0.8547
vn 0.4293 0.6442 0.6330
vn -0.1565 0.6442 0.7487
vn -0.8294 -0.1910 0.5250
vn 0.9426 0.2719 0.1938
vn 0.1409 -0.0051 -0.9900
vn 0.7799 0.1908 -0.5961
vn 0.6445 0.6362 -0.4241
vn 0.1524 0.6318 -0.7600
vn -0.4325 0.6264 -0.6485
vn -0.7613 0.6271 -0.1645
vn -0.6524 0.6357 0.4126
vn 0.7541 0.6397 0.1487
vn -0.0666 -0.0038 0.9978
vn 0.5848 -0.0333 0.8105
vn 0.3674 0.6843 0.6299
vn -0.1945 0.5470 0.8142
vn -0.0710 0.9955 0.0628
vn -0.5090 0.7805 0.3629
vn -0.4674 0.6922 -0.5499
vn -0.8274 0.5537 -0.0934
vn -0.5636 -0.0358 -0.8253
vn -0.9593 -0.0031 -0.2823
vn -0.3212 -0.7231 -0.6116
vn -0.8256 -0.5568 -0.0913
vn 0.0972 -0.9933 -0.0619
vn -0.5089 -0.7809 0.3622
vn -0.6646 0.6066 -0.4363
vn -0.5693 -0.0628 -0.8197
vn 0.4670 -0.7172 0.5173
vn -0.1963 -0.5510 0.8111
vn -0.3274 0.9138 0.2403
vn -0.5974 0.6697 0.4411
vn -0.8433 0.4459 -0.3001
vn 0.3321 -0.9111 -0.2443
vn 0.6443 -0.6728 0.3636
vn 0.2267 0.6099 0.7593
vn -0.1539 -0.6715 -0.7248
vn 0.6160 -0.0629 0.7853
vn 0.8414 -0.4955 0.2159
vn 0.5985 -0.6684 -0.4416
vn 0.7786 -0.2555 -0.5732
vn 0.9761 -0.1826 0.1182
vn 0.6343 -0.0468 0.7717
vn 0.0413 0.4503 0.8919
vn 0.0440 -0.4923 -0.8693
vn -0.5503 -0.0465 -0.8337
vn -0.5287 0.0041 -0.8488
vn -0.9522 0.2005 -0.2303
vn -0.7456 0.6567 -0.1136
vn -0.4355 0.6540 -0.6185
vn 0.1767 -0.1790 -0.9678
vn -0.7694 0.2939 0.5671
vn 0.6557 0.0026 0.7550
vn -0.0588 0.2033 0.9774
vn -0.1047 0.6500 0.7527
vn 0.4674 0.6440 0.6057
vn 0.7655 0.6353 0.1022
vn 0.6268 0.6337 -0.4534
vn 0.1371 0.6429 -0.7536
vn -0.6061 0.6533 0.4538
vt 0.181019 0.010379
vt 0.210947 0.013226
vt 0.211872 0.005149
vt 0.181633 0.002277
vt 0.240772 0.017225
vt 0.242008 0.009186
vt 0.001238 0.017273
vt 0.031016 0.013271
vt 0.030089 0.005203
vt -0.000000 0.009246
vt 0.060926 0.010414
vt 0.060309 0.002317
vt 0.090925 0.008700
vt 0.090615 0.000585
vt 0.120967 0.008121
vt 0.120964 -0.000000
vt 0.151011 0.008680
vt 0.151316 0.000562
vt 0.053116 0.206220
vt 0.075150 0.452898
vt 0.090405 0.451762
vt 0.075678 0.204310
vt 0.121005 0.202774
vt 0.120999 0.450852
vt 0.136305 0.451081
vt 0.143691 0.203162
vt 0.188904 0.206230
vt 0.166857 0.452897
vt 0.182085 0.454483
vt 0.211316 0.208902
vt 0.105693 0.451078
vt 0.098315 0.203155
vt 0.151596 0.451762
vt 0.166333 0.204318
vt 0.030674 0.208894
vt 0.059934 0.454483
vt 0.108333 0.655624
vt 0.109121 0.515309
vt 0.114636 0.514049
vt 0.115697 0.655800
vt 0.120370 0.513361
vt 0.122969 0.656050
vt 0.126010 0.513967
vt 0.130268 0.656190
vt 0.131541 0.515162
vt 0.137701 0.656019
vt 0.136751 0.516006
vt 0.145112 0.655455
vt 0.141520 0.516148
vt 0.152655 0.654559
vt 0.126725 0.506772
vt 0.132475 0.506920
vt 0.093150 0.655664
vt 0.099460 0.516874
vt 0.104220 0.516383
vt 0.100673 0.655604
vt 0.232975 0.504215
vt 0.238336 0.509576
vt 0.238336 0.517157
vt 0.232975 0.522518
vt 0.225394 0.522518
vt 0.220033 0.517157
vt 0.220033 0.509576
vt 0.225394 0.504215
vt 0.120268 0.506534
vt 0.120125 0.499242
vt 0.126773 0.499224
vt 0.098776 0.507786
vt 0.103175 0.507596
vt 0.113737 0.506797
vt 0.137310 0.507132
vt 0.107973 0.507169
vt 0.141612 0.507270
vt 0.102922 0.499148
vt 0.098582 0.499062
vt 0.098810 0.490312
vt 0.103326 0.490702
vt 0.107745 0.499121
vt 0.113484 0.499250
vt 0.137242 0.498776
vt 0.141499 0.498726
vt 0.132490 0.498909
vt 0.131826 0.490946
vt 0.126337 0.491648
vt 0.124116 0.455858
vt 0.128317 0.455462
vt 0.136573 0.490462
vt 0.119971 0.492041
vt 0.108305 0.491150
vt 0.113750 0.491757
vt 0.141075 0.490110
vt 0.227963 0.540821
vt 0.231248 0.544106
vt 0.231248 0.548751
vt 0.227963 0.552036
vt 0.223318 0.552036
vt 0.220033 0.548751
vt 0.220033 0.544106
vt 0.223318 0.540821
vt 0.115738 0.455982
vt 0.119929 0.456036
vt 0.102669 0.454483
vt 0.107167 0.455078
vt 0.132652 0.454957
vt 0.111519 0.455634
vt 0.137144 0.454483
vt 0.167838 0.655624
vt 0.168626 0.515309
vt 0.174141 0.514049
vt 0.175202 0.655800
vt 0.179875 0.513361
vt 0.182474 0.656050
vt 0.185516 0.513967
vt 0.189774 0.656190
vt 0.191046 0.515162
vt 0.197206 0.656019
vt 0.196256 0.516006
vt 0.204617 0.655455
vt 0.201026 0.516148
vt 0.212161 0.654559
vt 0.186230 0.506772
vt 0.191981 0.506920
vt 0.152655 0.655664
vt 0.158966 0.516874
vt 0.163725 0.516383
vt 0.160179 0.655604
vt 0.238336 0.527879
vt 0.238336 0.535460
vt 0.232975 0.540821
vt 0.225394 0.540821
vt 0.220033 0.535460
vt 0.220033 0.527879
vt 0.225394 0.522518
vt 0.179774 0.506534
vt 0.179631 0.499242
vt 0.186278 0.499224
vt 0.158281 0.507786
vt 0.162680 0.507596
vt 0.173242 0.506797
vt 0.196815 0.507132
vt 0.167478 0.507169
vt 0.201118 0.507270
vt 0.162427 0.499148
vt 0.158088 0.499062
vt 0.158316 0.490312
vt 0.162832 0.490702
vt 0.167250 0.499121
vt 0.172989 0.499250
vt 0.196748 0.498776
vt 0.201005 0.498726
vt 0.191996 0.498909
vt 0.191332 0.490946
vt 0.185842 0.491648
vt 0.183621 0.455858
vt 0.187822 0.455462
vt 0.196078 0.490462
vt 0.179476 0.492041
vt 0.167811 0.491150
vt 0.173255 0.491757
vt 0.200580 0.490110
vt 0.227963 0.552036
vt 0.231248 0.555321
vt 0.231248 0.559966
vt 0.227963 0.563251
vt 0.223318 0.563251
vt 0.220033 0.559966
vt 0.220033 0.555321
vt 0.223318 0.552036
vt 0.175243 0.455982
vt 0.179434 0.456036
vt 0.162175 0.454483
vt 0.166673 0.455078
vt 0.192157 0.454957
vt 0.171025 0.455634
vt 0.196649 0.454483
vt 0.069670 0.455169
vt 0.072788 0.612950
vt 0.061585 0.616690
vt 0.058088 0.455056
vt 0.048977 0.619132
vt 0.046568 0.454743
vt 0.036287 0.617002
vt 0.035047 0.454483
vt 0.024733 0.613286
vt 0.023529 0.454530
vt 0.014687 0.610909
vt 0.011871 0.455001
vt 0.005507 0.610338
vt 0.000000 0.455829
vt 0.035048 0.623290
vt 0.023094 0.621900
vt 0.093150 0.454610
vt 0.091515 0.609309
vt 0.082435 0.610408
vt 0.081414 0.454986
vt 0.240922 0.462936
vt 0.240922 0.474824
vt 0.232515 0.483248
vt 0.220596 0.483259
vt 0.212161 0.474821
vt 0.212179 0.462890
vt 0.220628 0.454483
vt 0.232530 0.454516
vt 0.048930 0.624435
vt 0.049067 0.629004
vt 0.034710 0.629504
vt 0.092393 0.620423
vt 0.084105 0.620676
vt 0.062893 0.623209
vt 0.013545 0.621338
vt 0.074897 0.621622
vt 0.005404 0.621167
vt 0.084086 0.630793
vt 0.092133 0.631588
vt 0.090557 0.642871
vt 0.082494 0.640962
vt 0.075009 0.630129
vt 0.063337 0.629390
vt 0.013977 0.631386
vt 0.006030 0.632116
vt 0.023019 0.630452
vt 0.024579 0.638890
vt 0.035724 0.635428
vt 0.041798 0.676419
vt 0.034485 0.677825
vt 0.015932 0.641361
vt 0.049048 0.633092
vt 0.073458 0.638582
vt 0.062376 0.635272
vt 0.007854 0.643252
vt 0.240914 0.489375
vt 0.240921 0.498069
vt 0.234777 0.504215
vt 0.226149 0.504215
vt 0.220033 0.498109
vt 0.220036 0.489395
vt 0.226206 0.483259
vt 0.234822 0.483281
vt 0.056557 0.676262
vt 0.049167 0.675950
vt 0.078691 0.681962
vt 0.071281 0.679646
vt 0.027157 0.679798
vt 0.063914 0.677607
vt 0.019750 0.681963
s 1
f 25/1/1 26/2/2 4/3/2 2/4/1
f 26/2/2 27/5/3 6/6/3 4/3/2
f 27/7/3 28/8/4 8/9/4 6/10/3
f 28/8/4 29/11/5 10/12/5 8/9/4
f 29/11/5 30/13/6 12/14/6 10/12/5
f 30/13/6 31/15/7 14/16/7 12/14/6
f 31/15/7 32/17/8 16/18/8 14/16/7
f 32/17/8 25/1/1 2/4/1 16/18/8
f 7/19/9 20/20/10 21/21/11 9/22/12
f 13/23/13 23/24/14 24/25/15 15/26/16
f 3/27/17 18/28/18 19/29/19 5/30/20
f 9/22/12 21/21/11 22/31/21 11/32/22
f 15/26/16 24/25/15 17/33/23 1/34/24
f 1/34/24 17/33/23 18/28/18 3/27/17
f 5/35/20 19/36/19 20/20/10 7/19/9
f 11/32/22 22/31/21 23/24/14 13/23/13
f 15/26/16 1/34/24 25/1/1 32/17/8
f 13/23/13 15/26/16 32/17/8 31/15/7
f 11/32/22 13/23/13 31/15/7 30/13/6
f 9/22/12 11/32/22 30/13/6 29/11/5
f 7/19/9 9/22/12 29/11/5 28/8/4
f 5/35/20 7/19/9 28/8/4 27/7/3
f 3/27/17 5/30/20 27/5/3 26/2/2
f 1/34/24 3/27/17 26/2/2 25/1/1
f 33/37/25 34/38/26 36/39/27 35/40/28
f 35/40/28 36/39/27 38/41/29 37/42/30
f 37/42/30 38/41/29 40/43/31 39/44/32
f 39/44/32 40/43/31 42/45/33 41/46/34
f 41/46/34 42/45/33 44/47/35 43/48/36
f 43/48/36 44/47/35 46/49/37 45/50/38
f 42/45/33 40/43/31 52/51/39 53/52/40
f 45/53/38 46/54/37 48/55/41 47/56/42
f 47/56/42 48/55/41 34/38/26 33/37/25
f 33/57/25 35/58/28 37/59/30 39/60/32 41/61/34 43/62/36 45/63/38 47/64/42
f 52/51/39 51/65/43 59/66/44 60/67/45
f 48/55/41 46/54/37 55/68/46 56/69/47
f 38/41/29 36/39/27 50/70/48 51/65/43
f 44/47/35 42/45/33 53/52/40 54/71/49
f 34/38/26 48/55/41 56/69/47 49/72/50
f 36/39/27 34/38/26 49/72/50 50/70/48
f 40/43/31 38/41/29 51/65/43 52/51/39
f 46/49/37 44/47/35 54/71/49 55/73/46
f 64/74/51 63/75/52 71/76/53 72/77/54
f 50/70/48 49/72/50 57/78/55 58/79/56
f 49/72/50 56/69/47 64/74/51 57/78/55
f 55/73/46 54/71/49 62/80/57 63/81/52
f 53/52/40 52/51/39 60/67/45 61/82/58
f 51/65/43 50/70/48 58/79/56 59/66/44
f 56/69/47 55/68/46 63/75/52 64/74/51
f 54/71/49 53/52/40 61/82/58 62/80/57
f 69/83/59 68/84/60 76/85/61 77/86/62
f 62/80/57 61/82/58 69/83/59 70/87/63
f 60/67/45 59/66/44 67/88/64 68/84/60
f 58/79/56 57/78/55 65/89/65 66/90/66
f 57/78/55 64/74/51 72/77/54 65/89/65
f 63/81/52 62/80/57 70/87/63 71/91/53
f 61/82/58 60/67/45 68/84/60 69/83/59
f 59/66/44 58/79/56 66/90/66 67/88/64
f 74/92/67 73/93/68 80/94/69 79/95/70 78/96/71 77/97/62 76/98/61 75/99/72
f 67/88/64 66/90/66 74/100/67 75/101/72
f 72/77/54 71/76/53 79/102/70 80/103/69
f 70/87/63 69/83/59 77/86/62 78/104/71
f 68/84/60 67/88/64 75/101/72 76/85/61
f 66/90/66 65/89/65 73/105/68 74/100/67
f 65/89/65 72/77/54 80/103/69 73/105/68
f 71/91/53 70/87/63 78/104/71 79/106/70
f 81/107/73 82/108/74 84/109/75 83/110/76
f 83/110/76 84/109/75 86/111/77 85/112/78
f 85/112/78 86/111/77 88/113/79 87/114/80
f 87/114/80 88/113/79 90/115/81 89/116/82
f 89/116/82 90/115/81 92/117/83 91/118/84
f 91/118/84 92/117/83 94/119/85 93/120/86
f 90/115/81 88/113/79 100/121/87 101/122/88
f 93/123/86 94/124/85 96/125/89 95/126/90
f 95/126/90 96/125/89 82/108/74 81/107/73
f 81/60/73 83/127/76 85/128/78 87/129/80 89/130/82 91/131/84 93/132/86 95/133/90
f 100/121/87 99/134/91 107/135/92 108/136/93
f 96/125/89 94/124/85 103/137/94 104/138/95
f 86/111/77 84/109/75 98/139/96 99/134/91
f 92/117/83 90/115/81 101/122/88 102/140/97
f 82/108/74 96/125/89 104/138/95 97/141/98
f 84/109/75 82/108/74 97/141/98 98/139/96
f 88/113/79 86/111/77 99/134/91 100/121/87
f 94/119/85 92/117/83 102/140/97 103/142/94
f 112/143/99 111/144/100 119/145/101 120/146/102
f 98/139/96 97/141/98 105/147/103 106/148/104
f 97/141/98 104/138/95 112/143/99 105/147/103
f 103/142/94 102/140/97 110/149/105 111/150/100
f 101/122/88 100/121/87 108/136/93 109/151/106
f 99/134/91 98/139/96 106/148/104 107/135/92
f 104/138/95 103/137/94 111/144/100 112/143/99
f 102/140/97 101/122/88 109/151/106 110/149/105
f 117/152/107 116/153/108 124/154/109 125/155/110
f 110/149/105 109/151/106 117/152/107 118/156/111
f 108/136/93 107/135/92 115/157/112 116/153/108
f 106/148/104 105/147/103 113/158/113 114/159/114
f 105/147/103 112/143/99 120/146/102 113/158/113
f 111/150/100 110/149/105 118/156/111 119/160/101
f 109/151/106 108/136/93 116/153/108 117/152/107
f 107/135/92 106/148/104 114/159/114 115/157/112
f 122/161/115 121/162/116 128/163/117 127/164/118 126/165/119 125/166/110 124/167/109 123/168/120
f 115/157/112 114/159/114 122/169/115 123/170/120
f 120/146/102 119/145/101 127/171/118 128/172/117
f 118/156/111 117/152/107 125/155/110 126/173/119
f 116/153/108 115/157/112 123/170/120 124/154/109
f 114/159/114 113/158/113 121/174/116 122/169/115
f 113/158/113 120/146/102 128/172/117 121/174/116
f 119/160/101 118/156/111 126/173/119 127/175/118
f 129/176/121 130/177/122 132/178/123 131/179/124
f 131/179/124 132/178/123 134/180/125 133/181/126
f 133/181/126 134/180/125 136/182/127 135/183/128
f 135/183/128 136/182/127 138/184/129 137/185/130
f 137/185/130 138/184/129 140/186/131 139/187/132
f 139/187/132 140/186/131 142/188/133 141/189/134
f 138/184/129 136/182/127 148/190/135 149/191/136
f 141/192/134 142/193/133 144/194/137 143/195/138
f 143/195/138 144/194/137 130/177/122 129/176/121
f 129/196/121 131/197/124 133/198/126 135/199/128 137/200/130 139/201/132 141/202/134 143/203/138
f 148/190/135 147/204/139 155/205/140 156/206/141
f 144/194/137 142/193/133 151/207/142 152/208/143
f 134/180/125 132/178/123 146/209/144 147/204/139
f 140/186/131 138/184/129 149/191/136 150/210/145
f 130/177/122 144/194/137 152/208/143 145/211/146
f 132/178/123 130/177/122 145/211/146 146/209/144
f 136/182/127 134/180/125 147/204/139 148/190/135
f 142/188/133 140/186/131 150/210/145 151/212/142
f 160/213/147 159/214/148 167/215/149 168/216/150
f 146/209/144 145/211/146 153/217/151 154/218/152
f 145/211/146 152/208/143 160/213/147 153/217/151
f 151/212/142 150/210/145 158/219/153 159/220/148
f 149/191/136 148/190/135 156/206/141 157/221/154
f 147/204/139 146/209/144 154/218/152 155/205/140
f 152/208/143 151/207/142 159/214/148 160/213/147
f 150/210/145 149/191/136 157/221/154 158/219/153
f 165/222/155 164/223/156 172/224/157 173/225/158
f 158/219/153 157/221/154 165/222/155 166/226/159
f 156/206/141 155/205/140 163/227/160 164/223/156
f 154/218/152 153/217/151 161/228/161 162/229/162
f 153/217/151 160/213/147 168/216/150 161/228/161
f 159/220/148 158/219/153 166/226/159 167/230/149
f 157/221/154 156/206/141 164/223/156 165/222/155
f 155/205/140 154/218/152 162/229/162 163/227/160
f 170/231/163 169/232/164 176/233/165 175/234/166 174/235/167 173/236/158 172/237/157 171/238/168
f 163/227/160 162/229/162 170/239/163 171/240/168
f 168/216/150 167/215/149 175/241/166 176/242/165
f 166/226/159 165/222/155 173/225/158 174/243/167
f 164/223/156 163/227/160 171/240/168 172/224/157
f 162/229/162 161/228/161 169/244/164 170/239/163
f 161/228/161 168/216/150 176/242/165 169/244/164
f 167/230/149 166/226/159 174/243/167 175/245/166
